<?xml version="1.0" encoding="UTF-8"?>
<svg id="Layer_1" data-name="Layer 1" xmlns="http://www.w3.org/2000/svg" viewBox="0 0 128 128">
  <defs>
    <style>
      .cls-1 {
        fill: #fff;
        stroke-width: 0px;
      }
    </style>
  </defs>
  <path class="cls-1" d="m112.9,41.86c-11.83-11.84-31.09-11.84-42.93,0l-4.29,4.28-.82.82,12.66,12.66.83-.82,4.28-4.28c4.85-4.85,12.75-4.85,17.61,0,4.85,4.85,4.85,12.75,0,17.6s-12.76,4.86-17.61,0l-6.18-6.18-.06.05-19.75-19.74-4.29-4.39c-11.84-11.84-31.1-11.84-42.93,0-11.83,11.83-11.83,31.1,0,42.93,5.92,5.92,13.7,8.88,21.47,8.88s15.54-2.96,21.46-8.88l4.29-4.28.71-.72-12.66-12.66-.71.72-4.29,4.28c-4.85,4.86-12.75,4.86-17.61,0-4.85-4.85-4.85-12.75,0-17.6,2.42-2.42,5.62-3.64,8.81-3.64s6.37,1.21,8.8,3.64l8.8,8.8,12.62,12.72.06-.06,8.81,8.8c5.92,5.92,13.69,8.88,21.46,8.88s15.55-2.96,21.46-8.88c11.85-11.83,11.85-31.1,0-42.93Zm-34.98-4.75l1.44-.84c.52-.3,1.19-.13,1.5.39l.72,1.22c.3.52.13,1.19-.39,1.5l-1.43.84c-.53.31-1.19.13-1.51-.39l-.72-1.22c-.3-.52-.13-1.19.39-1.5Zm-10.16,11.61l-1-.99c-.43-.44-.43-1.13,0-1.55l1.17-1.17c.44-.43,1.13-.43,1.55,0l1,.99c.43.44.43,1.13,0,1.55l-1.17,1.17c-.44.43-1.13.43-1.55,0Zm2.97,2.97l-1-.99c-.43-.43-.43-1.13,0-1.55l1.18-1.17c.43-.43,1.12-.43,1.54,0l1,1c.43.43.43,1.12,0,1.54l-1.17,1.17c-.43.44-1.13.44-1.55,0Zm3.07,3.07l-1-.99c-.43-.43-.43-1.13,0-1.55l1.18-1.17c.43-.43,1.12-.43,1.54,0l1,1c.43.43.43,1.12,0,1.54l-1.17,1.17c-.43.44-1.13.44-1.55,0Zm5.83,1.92l-1.17,1.18c-.43.43-1.13.43-1.55,0l-.99-1c-.44-.43-.44-1.13,0-1.55l1.17-1.17c.43-.43,1.12-.43,1.54,0l1,1c.43.43.43,1.12,0,1.54Zm.76-13.23l-.71-1.21c-.31-.53-.13-1.19.39-1.51l1.43-.84c.52-.3,1.19-.13,1.51.39l.71,1.22c.31.52.13,1.19-.39,1.5l-1.43.84c-.52.31-1.19.13-1.51-.39Zm2.21,3.74l-.72-1.22c-.3-.52-.13-1.19.39-1.5l1.43-.84c.52-.3,1.19-.13,1.51.39l.72,1.22c.3.52.13,1.19-.39,1.5l-1.44.84c-.52.31-1.19.13-1.5-.39Zm5.15,3.32l-1.43.84c-.52.3-1.19.13-1.51-.39l-.71-1.22c-.31-.52-.13-1.19.39-1.5l1.43-.84c.52-.31,1.19-.13,1.5.39l.72,1.22c.31.52.13,1.19-.39,1.5Zm9.51-2.07l-.29,1.38c-.12.6-.71.98-1.3.84l-1.63-.34c-.59-.12-.98-.7-.84-1.3l.29-1.38c.12-.6.7-.98,1.3-.84l1.62.34c.6.12.98.7.85,1.3Zm.9-4.29l-.29,1.38c-.12.6-.7.98-1.3.85l-1.62-.34c-.6-.13-.98-.71-.85-1.31l.29-1.38c.12-.59.71-.97,1.3-.84l1.63.34c.59.12.97.71.84,1.3Zm.9-4.24l-.29,1.38c-.12.6-.71.98-1.3.85l-1.63-.35c-.59-.12-.98-.7-.84-1.3l.28-1.38c.13-.6.71-.98,1.31-.84l1.62.34c.6.12.98.7.85,1.3Zm.86-4.12l-.28,1.38c-.13.6-.71.98-1.3.85l-1.63-.35c-.6-.12-.98-.7-.85-1.3l.29-1.38c.12-.59.71-.97,1.3-.84l1.63.34c.6.12.98.71.84,1.3Zm5.11,14.47l1.16-.81c.49-.35,1.17-.23,1.52.27l.96,1.35c.35.49.24,1.18-.26,1.53l-1.16.81c-.5.35-1.18.23-1.53-.27l-.96-1.35c-.35-.49-.24-1.18.27-1.53Zm2.96,14.62l-.17,1.66c-.06.61-.6,1.04-1.2.98l-1.41-.14c-.6-.07-1.03-.61-.98-1.21l.17-1.65c.07-.61.61-1.04,1.21-.98l1.4.14c.61.07,1.04.61.98,1.2Zm-4.31-8.94c-.49.35-1.18.23-1.53-.27l-.96-1.35c-.35-.49-.23-1.18.27-1.53l1.16-.81c.49-.35,1.17-.23,1.52.27l.96,1.35c.35.49.24,1.18-.26,1.53l-1.16.81Zm-33.06,8.76l1.03-.97c.45-.42,1.14-.39,1.55.06l1.13,1.21c.42.45.39,1.15-.06,1.55l-1.03.97c-.45.41-1.14.39-1.55-.06l-1.13-1.22c-.42-.45-.39-1.14.06-1.54Zm-5.82,10.66l-1.03.97c-.45.42-1.14.39-1.55-.06l-1.13-1.22c-.42-.44-.39-1.14.06-1.54l1.03-.97c.45-.41,1.14-.39,1.55.06l1.13,1.22c.42.45.39,1.14-.06,1.54Zm3.21-2.98l-1.03.97c-.45.42-1.14.39-1.55-.06l-1.13-1.21c-.42-.45-.39-1.15.06-1.55l1.03-.97c.45-.41,1.14-.39,1.55.06l1.13,1.22c.42.45.39,1.14-.06,1.54Zm-.54-3.26c-.41-.45-.39-1.14.06-1.55l1.04-.97c.44-.41,1.14-.38,1.54.06l1.14,1.22c.41.45.39,1.14-.06,1.55l-1.04.96c-.45.42-1.14.39-1.54-.06l-1.14-1.21Zm5.72,14.55l-1.03.96c-.45.42-1.14.39-1.55-.06l-1.13-1.21c-.42-.45-.39-1.14.06-1.55l1.03-.97c.45-.41,1.14-.38,1.55.07l1.13,1.21c.42.45.39,1.14-.06,1.55Zm3.21-2.98l-1.03.97c-.45.41-1.14.38-1.55-.07l-1.13-1.21c-.42-.45-.39-1.14.06-1.55l1.03-.96c.45-.42,1.14-.39,1.55.06l1.13,1.21c.42.45.39,1.14-.06,1.55Zm3.18-2.96l-1.03.97c-.45.41-1.15.38-1.55-.06l-1.14-1.22c-.41-.45-.38-1.14.07-1.55l1.03-.96c.45-.42,1.14-.39,1.55.06l1.13,1.21c.42.45.39,1.14-.06,1.55Zm3.09-2.87l-1.04.97c-.45.42-1.14.39-1.54-.06l-1.14-1.21c-.41-.45-.39-1.15.06-1.55l1.04-.97c.44-.41,1.14-.39,1.54.06l1.14,1.22c.41.45.38,1.14-.06,1.54Zm6.8,17.19c-.09.6-.65,1.01-1.25.93l-1.64-.25c-.61-.09-1.01-.65-.93-1.25l.21-1.4c.09-.6.65-1.01,1.25-.92l1.64.25c.61.09,1.01.64.93,1.24l-.21,1.4Zm.64-4.33c-.09.6-.64,1-1.24.92l-1.65-.25c-.6-.09-1.01-.64-.93-1.25l.22-1.39c.09-.6.64-1.01,1.24-.93l1.65.25c.6.09,1.01.65.92,1.25l-.21,1.4Zm.64-4.3c-.09.61-.65,1.01-1.25.93l-1.64-.25c-.61-.09-1.01-.64-.93-1.25l.21-1.39c.09-.61.64-1.01,1.25-.93l1.64.25c.61.09,1.01.64.93,1.25l-.21,1.39Zm.62-4.16c-.09.6-.64,1.01-1.24.92l-1.65-.25c-.6-.09-1.01-.64-.92-1.24l.21-1.4c.09-.6.64-1.01,1.24-.92l1.65.24c.6.09,1.01.65.92,1.25l-.21,1.4Zm7.02-2.04l-.72-1.22c-.3-.52-.13-1.19.39-1.51l1.44-.84c.52-.3,1.19-.13,1.5.39l.72,1.22c.3.52.13,1.19-.39,1.51l-1.43.84c-.52.3-1.19.13-1.51-.39Zm2.13,3.63l-.71-1.22c-.31-.52-.13-1.19.39-1.51l1.43-.84c.52-.3,1.19-.13,1.51.39l.71,1.22c.31.52.13,1.19-.39,1.51l-1.43.84c-.52.3-1.19.13-1.51-.39Zm2.21,3.74l-.72-1.22c-.3-.52-.13-1.19.39-1.51l1.43-.84c.53-.3,1.19-.13,1.51.39l.72,1.22c.3.52.13,1.19-.39,1.51l-1.44.84c-.52.3-1.19.13-1.5-.39Zm5.15,3.32l-1.43.84c-.52.31-1.19.13-1.51-.39l-.71-1.22c-.31-.52-.13-1.19.39-1.5l1.43-.84c.52-.3,1.19-.13,1.5.39l.72,1.22c.31.52.13,1.19-.39,1.5Zm4.28-20.91c-.06.61-.6,1.04-1.2.98l-1.4-.14c-.61-.07-1.04-.61-.99-1.21l.18-1.65c.06-.61.6-1.04,1.2-.98l1.4.14c.61.07,1.04.61.98,1.2l-.17,1.66Zm-.22-16.91l-1.16.81c-.5.35-1.18.24-1.53-.26l-.96-1.36c-.35-.49-.24-1.17.27-1.52l1.16-.81c.49-.35,1.17-.24,1.52.26l.96,1.36c.35.49.24,1.17-.26,1.52Zm-.21-3.23c-.35-.49-.24-1.18.27-1.53l1.16-.81c.49-.35,1.17-.23,1.52.27l.96,1.35c.35.49.24,1.18-.26,1.53l-1.16.81c-.5.35-1.18.23-1.53-.27l-.96-1.35Zm4.75,20.58c-.07.61-.61,1.04-1.2.99l-1.41-.15c-.6-.07-1.04-.6-.98-1.2l.17-1.66c.07-.6.61-1.03,1.2-.98l1.41.15c.61.06,1.04.6.98,1.2l-.17,1.65Zm2.98,1.42l-1.41-.15c-.6-.06-1.03-.6-.98-1.2l.17-1.66c.07-.6.61-1.03,1.2-.98l1.41.15c.61.06,1.04.6.98,1.2l-.17,1.66c-.07.6-.61,1.03-1.2.98Z"/>
</svg>