<?xml version="1.0" encoding="UTF-8"?>
<svg id="Layer_1" data-name="Layer 1" xmlns="http://www.w3.org/2000/svg" xmlns:xlink="http://www.w3.org/1999/xlink" viewBox="0 0 816.38 288.53">
  <defs>
    <style>
      .cls-1 {
        letter-spacing: .05em;
      }

      .cls-2 {
        letter-spacing: .1em;
      }

      .cls-3 {
        letter-spacing: .2em;
      }

      .cls-4 {
        letter-spacing: .08em;
      }

      .cls-5 {
        letter-spacing: .15em;
      }

      .cls-6 {
        filter: url(#drop-shadow-1);
      }

      .cls-7 {
        letter-spacing: .04em;
      }

      .cls-8 {
        stroke-width: 0px;
      }

      .cls-8, .cls-9 {
        fill: #fff;
      }

      .cls-10 {
        filter: url(#drop-shadow-2);
      }

      .cls-9 {
        font-family: EuclidCircularA-Regular, 'Euclid Circular A';
        font-size: 15.95px;
      }

      .cls-11 {
        letter-spacing: .08em;
      }

      .cls-12 {
        letter-spacing: .08em;
      }

      .cls-13 {
        letter-spacing: .04em;
      }

      .cls-14 {
        letter-spacing: .1em;
      }

      .cls-15 {
        letter-spacing: .1em;
      }

      .cls-16 {
        letter-spacing: .2em;
      }
    </style>
    <filter id="drop-shadow-1" filterUnits="userSpaceOnUse">
      <feOffset dx="5.67" dy="5.67"/>
      <feGaussianBlur result="blur" stdDeviation="0"/>
      <feFlood flood-color="#148040" flood-opacity=".17"/>
      <feComposite in2="blur" operator="in"/>
      <feComposite in="SourceGraphic"/>
    </filter>
    <filter id="drop-shadow-2" filterUnits="userSpaceOnUse">
      <feOffset dx="2.83" dy="2.83"/>
      <feGaussianBlur result="blur-2" stdDeviation="0"/>
      <feFlood flood-color="#148040" flood-opacity=".12"/>
      <feComposite in2="blur-2" operator="in"/>
      <feComposite in="SourceGraphic"/>
    </filter>
  </defs>
  <text class="cls-9" transform="translate(99.67 284.24)"><tspan class="cls-1" x="0" y="0">Y</tspan><tspan class="cls-15" x="11.6" y="0">OU</tspan><tspan class="cls-11" x="39.53" y="0">R</tspan><tspan class="cls-3" x="50.96" y="0"> </tspan><tspan class="cls-15" x="57.92" y="0">DREAMS,</tspan><tspan class="cls-16" x="138.23" y="0"> </tspan><tspan class="cls-2" x="145.19" y="0">OU</tspan><tspan class="cls-11" x="173.12" y="0">R</tspan><tspan class="cls-16" x="184.55" y="0"> </tspan><tspan class="cls-2" x="191.51" y="0">SCREENS:</tspan><tspan class="cls-5" x="279.7" y="0"> </tspan><tspan class="cls-1" x="285.96" y="0">Y</tspan><tspan class="cls-2" x="297.56" y="0">OU</tspan><tspan class="cls-4" x="325.49" y="0">R</tspan><tspan class="cls-16" x="336.92" y="0"> </tspan><tspan class="cls-2" x="343.88" y="0">IM</tspan><tspan class="cls-12" x="365.68" y="0">A</tspan><tspan class="cls-15" x="378.4" y="0">GIN</tspan><tspan class="cls-7" x="413.34" y="0">A</tspan><tspan class="cls-15" x="425.37" y="0">TION,</tspan><tspan class="cls-3" x="476.78" y="0"> </tspan><tspan class="cls-15" x="483.74" y="0">OU</tspan><tspan class="cls-4" x="511.67" y="0">R</tspan><tspan class="cls-3" x="523.1" y="0"> </tspan><tspan class="cls-15" x="530.06" y="0">CRE</tspan><tspan class="cls-13" x="566.42" y="0">A</tspan><tspan class="cls-14" x="578.45" y="0">TION.</tspan></text>
  <g class="cls-6">
    <path class="cls-8" d="m568.96,27.6c-36.77-36.8-96.61-36.8-133.41,0l-13.33,13.31-2.56,2.56,39.36,39.36,2.59-2.56,13.31-13.31c15.07-15.07,39.62-15.07,54.72,0,15.07,15.07,15.07,39.62,0,54.69-15.1,15.1-39.65,15.1-54.72,0l-19.22-19.19-.18.15-61.38-61.35-13.33-13.66c-36.8-36.8-96.64-36.8-133.44,0-36.77,36.77-36.77,96.64,0,133.41,18.4,18.4,42.57,27.61,66.73,27.61s48.31-9.21,66.7-27.61l13.33-13.31,2.21-2.24-39.36-39.36-2.21,2.24-13.33,13.31c-15.07,15.1-39.62,15.1-54.72,0s-15.07-39.62,0-54.69c7.54-7.54,17.46-11.3,27.38-11.3s19.81,3.77,27.35,11.3l27.35,27.35,39.21,39.53.18-.18,27.38,27.35c18.4,18.4,42.54,27.61,66.7,27.61s48.34-9.21,66.7-27.61c36.83-36.77,36.83-96.64,0-133.41Zm-108.71-14.75l4.47-2.62c1.62-.94,3.71-.41,4.65,1.21l2.24,3.8c.94,1.62.41,3.71-1.21,4.65l-4.44,2.62c-1.65.97-3.71.41-4.68-1.21l-2.24-3.8c-.94-1.62-.41-3.71,1.21-4.65Zm-31.59,36.09l-3.12-3.09c-1.32-1.35-1.32-3.5,0-4.83l3.65-3.65c1.35-1.32,3.5-1.32,4.83,0l3.12,3.09c1.32,1.35,1.32,3.5,0,4.83l-3.65,3.65c-1.35,1.32-3.5,1.32-4.83,0Zm9.24,9.24l-3.12-3.09c-1.32-1.32-1.32-3.5,0-4.83l3.68-3.65c1.32-1.32,3.47-1.32,4.8,0l3.12,3.12c1.32,1.32,1.32,3.47,0,4.8l-3.65,3.65c-1.32,1.35-3.5,1.35-4.83,0Zm9.54,9.54l-3.12-3.09c-1.32-1.32-1.32-3.5,0-4.83l3.68-3.65c1.32-1.32,3.47-1.32,4.8,0l3.12,3.12c1.32,1.32,1.32,3.47,0,4.8l-3.65,3.65c-1.32,1.35-3.5,1.35-4.83,0Zm18.1,5.98l-3.65,3.68c-1.32,1.32-3.5,1.32-4.83,0l-3.09-3.12c-1.35-1.32-1.35-3.5,0-4.83l3.65-3.65c1.32-1.32,3.47-1.32,4.8,0l3.12,3.12c1.32,1.32,1.32,3.47,0,4.8Zm2.35-41.12l-2.21-3.77c-.97-1.65-.41-3.71,1.21-4.68l4.44-2.62c1.62-.94,3.71-.41,4.68,1.21l2.21,3.8c.97,1.62.41,3.71-1.21,4.65l-4.44,2.62c-1.62.97-3.71.41-4.68-1.21Zm6.86,11.63l-2.24-3.8c-.94-1.62-.41-3.71,1.21-4.65l4.44-2.62c1.62-.94,3.71-.41,4.68,1.21l2.24,3.8c.94,1.62.41,3.71-1.21,4.65l-4.47,2.62c-1.62.97-3.71.41-4.65-1.21Zm16.01,10.33l-4.44,2.62c-1.62.94-3.71.41-4.68-1.21l-2.21-3.8c-.97-1.62-.41-3.71,1.21-4.65l4.44-2.62c1.62-.97,3.71-.41,4.65,1.21l2.24,3.8c.97,1.62.41,3.71-1.21,4.65Zm29.55-6.45l-.91,4.3c-.38,1.85-2.21,3.03-4.03,2.62l-5.06-1.06c-1.83-.38-3.03-2.18-2.62-4.03l.91-4.3c.38-1.85,2.18-3.03,4.03-2.62l5.03,1.06c1.85.38,3.03,2.18,2.65,4.03Zm2.8-13.33l-.91,4.3c-.38,1.85-2.18,3.03-4.03,2.65l-5.03-1.06c-1.85-.41-3.03-2.21-2.65-4.06l.91-4.3c.38-1.83,2.21-3,4.03-2.62l5.06,1.06c1.83.38,3,2.21,2.62,4.03Zm2.8-13.19l-.91,4.3c-.38,1.85-2.21,3.03-4.03,2.65l-5.06-1.09c-1.83-.38-3.03-2.18-2.62-4.03l.88-4.3c.41-1.85,2.21-3.03,4.06-2.62l5.03,1.06c1.85.38,3.03,2.18,2.65,4.03Zm2.68-12.8l-.88,4.3c-.41,1.85-2.21,3.03-4.03,2.65l-5.06-1.09c-1.85-.38-3.03-2.18-2.65-4.03l.91-4.3c.38-1.83,2.21-3,4.03-2.62l5.06,1.06c1.85.38,3.03,2.21,2.62,4.03Zm15.87,44.98l3.59-2.53c1.53-1.09,3.65-.71,4.74.82l2.97,4.21c1.09,1.53.74,3.68-.79,4.77l-3.59,2.53c-1.56,1.09-3.68.71-4.77-.82l-2.97-4.21c-1.09-1.53-.74-3.68.82-4.77Zm9.18,45.45l-.53,5.15c-.18,1.88-1.85,3.24-3.74,3.03l-4.39-.44c-1.85-.21-3.21-1.88-3.03-3.77l.53-5.12c.21-1.88,1.88-3.24,3.77-3.03l4.36.44c1.88.21,3.24,1.88,3.03,3.74Zm-13.39-27.79c-1.53,1.09-3.68.71-4.77-.82l-2.97-4.21c-1.09-1.53-.71-3.68.82-4.77l3.59-2.53c1.53-1.09,3.65-.71,4.74.82l2.97,4.21c1.09,1.53.74,3.68-.79,4.77l-3.59,2.53Zm-102.73,27.23l3.21-3c1.38-1.3,3.53-1.21,4.83.18l3.5,3.77c1.3,1.38,1.21,3.56-.18,4.83l-3.21,3c-1.38,1.27-3.53,1.21-4.83-.18l-3.5-3.8c-1.3-1.38-1.21-3.53.18-4.8Zm-18.07,33.12l-3.21,3c-1.38,1.3-3.53,1.21-4.83-.18l-3.5-3.8c-1.3-1.35-1.21-3.53.18-4.8l3.21-3c1.38-1.27,3.53-1.21,4.83.18l3.5,3.8c1.3,1.38,1.21,3.53-.18,4.8Zm9.98-9.27l-3.21,3c-1.38,1.3-3.53,1.21-4.83-.18l-3.5-3.77c-1.3-1.38-1.21-3.56.18-4.83l3.21-3c1.38-1.27,3.53-1.21,4.83.18l3.5,3.8c1.3,1.38,1.21,3.53-.18,4.8Zm-1.68-10.13c-1.27-1.38-1.21-3.53.18-4.83l3.24-3c1.35-1.27,3.53-1.18,4.8.18l3.53,3.8c1.27,1.38,1.21,3.53-.18,4.83l-3.24,2.97c-1.38,1.3-3.53,1.21-4.8-.18l-3.53-3.77Zm17.78,45.21l-3.21,2.97c-1.38,1.3-3.53,1.21-4.83-.18l-3.5-3.77c-1.3-1.38-1.21-3.53.18-4.83l3.21-3c1.38-1.27,3.53-1.18,4.83.21l3.5,3.77c1.3,1.38,1.21,3.53-.18,4.83Zm9.98-9.27l-3.21,3c-1.38,1.27-3.53,1.18-4.83-.21l-3.5-3.77c-1.3-1.38-1.21-3.53.18-4.83l3.21-2.97c1.38-1.3,3.53-1.21,4.83.18l3.5,3.77c1.3,1.38,1.21,3.53-.18,4.83Zm9.89-9.18l-3.21,3c-1.38,1.27-3.56,1.18-4.83-.18l-3.53-3.8c-1.27-1.38-1.18-3.53.21-4.83l3.21-2.97c1.38-1.3,3.53-1.21,4.83.18l3.5,3.77c1.3,1.38,1.21,3.53-.18,4.83Zm9.6-8.92l-3.24,3c-1.38,1.3-3.53,1.21-4.8-.18l-3.53-3.77c-1.27-1.38-1.21-3.56.18-4.83l3.24-3c1.35-1.27,3.53-1.21,4.8.18l3.53,3.8c1.27,1.38,1.18,3.53-.18,4.8Zm21.14,53.43c-.29,1.85-2.03,3.15-3.89,2.88l-5.09-.77c-1.88-.29-3.15-2.03-2.88-3.89l.65-4.36c.29-1.85,2.03-3.15,3.89-2.86l5.09.77c1.88.27,3.15,2,2.88,3.86l-.65,4.36Zm2-13.45c-.27,1.85-2,3.12-3.86,2.86l-5.12-.77c-1.85-.26-3.15-2-2.88-3.89l.68-4.33c.26-1.85,2-3.15,3.86-2.88l5.12.77c1.85.29,3.15,2.03,2.86,3.89l-.65,4.36Zm2-13.36c-.29,1.88-2.03,3.15-3.89,2.88l-5.09-.77c-1.88-.29-3.15-2-2.88-3.89l.65-4.33c.29-1.88,2-3.15,3.89-2.88l5.09.77c1.88.29,3.15,2,2.88,3.89l-.65,4.33Zm1.91-12.92c-.27,1.85-2,3.15-3.86,2.86l-5.12-.77c-1.85-.27-3.15-2-2.86-3.86l.65-4.36c.26-1.85,2-3.15,3.86-2.86l5.12.74c1.85.29,3.15,2.03,2.86,3.89l-.65,4.36Zm21.81-6.33l-2.24-3.8c-.94-1.62-.41-3.71,1.21-4.68l4.47-2.62c1.62-.94,3.71-.41,4.65,1.21l2.24,3.8c.94,1.62.41,3.71-1.21,4.68l-4.44,2.62c-1.62.94-3.71.41-4.68-1.21Zm6.62,11.27l-2.21-3.8c-.97-1.62-.41-3.71,1.21-4.68l4.44-2.62c1.62-.94,3.71-.41,4.68,1.21l2.21,3.8c.97,1.62.41,3.71-1.21,4.68l-4.44,2.62c-1.62.94-3.71.41-4.68-1.21Zm6.86,11.63l-2.24-3.8c-.94-1.62-.41-3.71,1.21-4.68l4.44-2.62c1.65-.94,3.71-.41,4.68,1.21l2.24,3.8c.94,1.62.41,3.71-1.21,4.68l-4.47,2.62c-1.62.94-3.71.41-4.65-1.21Zm16.01,10.3l-4.44,2.62c-1.62.97-3.71.41-4.68-1.21l-2.21-3.8c-.97-1.62-.41-3.71,1.21-4.65l4.44-2.62c1.62-.94,3.71-.41,4.65,1.21l2.24,3.8c.97,1.62.41,3.71-1.21,4.65Zm13.31-65c-.18,1.88-1.85,3.24-3.74,3.03l-4.36-.44c-1.88-.21-3.24-1.88-3.06-3.77l.56-5.12c.18-1.88,1.85-3.24,3.74-3.03l4.36.44c1.88.21,3.24,1.88,3.03,3.74l-.53,5.15Zm-.68-52.54l-3.59,2.53c-1.56,1.09-3.68.74-4.77-.79l-2.97-4.24c-1.09-1.53-.74-3.65.82-4.74l3.59-2.53c1.53-1.09,3.65-.74,4.74.79l2.97,4.24c1.09,1.53.74,3.65-.79,4.74Zm-.65-10.04c-1.09-1.53-.74-3.68.82-4.77l3.59-2.53c1.53-1.09,3.65-.71,4.74.82l2.97,4.21c1.09,1.53.74,3.68-.79,4.77l-3.59,2.53c-1.56,1.09-3.68.71-4.77-.82l-2.97-4.21Zm14.75,63.97c-.21,1.88-1.88,3.24-3.74,3.06l-4.39-.47c-1.85-.21-3.24-1.85-3.03-3.74l.53-5.15c.21-1.85,1.88-3.21,3.74-3.03l4.39.47c1.88.18,3.24,1.85,3.03,3.74l-.53,5.12Zm9.27,4.42l-4.39-.47c-1.85-.18-3.21-1.85-3.03-3.74l.53-5.15c.21-1.85,1.88-3.21,3.74-3.03l4.39.47c1.88.18,3.24,1.85,3.03,3.74l-.53,5.15c-.21,1.85-1.88,3.21-3.74,3.03Z"/>
  </g>
  <g class="cls-10">
    <path class="cls-8" d="m42.67,223.89c-2.68-6.36-7.5-10.6-14.03-12.99-3.34-1.22-7-1.83-11-1.83H0v9.34h17.65c9.25-.11,16.12,5.84,16,15.23.25,7.41-5.16,13.98-12.58,14.89-2.11.52-18.57.18-21.07.27v10.42h17.65c8.08,0,14.6-2.3,19.56-6.9,7.49-6.44,9.4-19.23,5.47-28.42Z"/>
    <path class="cls-8" d="m88.44,241.08c11.25-3.42,13.31-21.25,4.61-27.88-3.61-2.94-8.35-4.4-14.22-4.4,0,0-22.06.14-22.06.14v9.73h12.43l8.51-.12c4.7-.04,9.27,2.39,9.22,7.38.04,4.65-3.95,7.67-8.56,7.58,0,0-9.17.12-9.17.12l-1.04.02h-11.39v25.71h11.46v-16.44l8.5-.07,11,16.51h12.71l-11.99-18.27Z"/>
    <path class="cls-8" d="m111.09,208.73v9.51h14.95v.05l20.41.05v-9.61h-35.36Zm35.49,40.81c-8.21-.05-27.5-.15-35.49-.12v9.52h35.56l-.07-9.41Zm-20.55-21.38v.02h-14.95v10.62h11.06v-.02l24.3-.07v-10.56h-20.41Z"/>
    <path class="cls-8" d="m205.99,258.94h-46.89l3.18-9.54h30.03l-2.29-9.52-6.72-20.77-7.7,20.77-1.83,6.78h-10.57l12.63-37.86,14.42.2c2.23,7.09,13.77,43.72,15.74,49.94Z"/>
    <path class="cls-8" d="m216.8,245.64l-.02,13.5,11-.14.05-13.36h-11.03Zm39.1-36.98l-14.29,16.78-13.89-16.65h-10.87l-.03,22.96h11.06l.03-7.05,13.57,16.38,14.03-15.97.07,33.9,10.87.07.2-50.41h-10.73Z"/>
    <path class="cls-8" d="m293.39,228.13v.05h-16.28v31.03l11,.2.07-20.64,24.5-.07v-10.62l-19.28.05Zm-16.28-19.13v10.15h35.43v-10.15h-35.43Z"/>
    <path class="cls-8" d="m337.43,245.41c-1.71-2.03-2.57-4.67-2.57-7.92v-28.42h-11.13v28.69c-.15,10.75,6.28,19.8,16.61,21.67v-11.79c-1.14-.52-2.09-1.27-2.91-2.23Zm17.25-36.34v28.42c-.03,4.84-1.64,8.34-5.55,10.2v11.74c10.32-1.74,16.87-11.28,16.61-21.67,0,0,0-28.69,0-28.69h-11.06Z"/>
    <path class="cls-8" d="m391.73,247.07c-2.04-1.26-3.15-3.2-3.52-5.45-2.42.98-6.17,2.37-11.26,4.13,1.54,7.51,8.05,12.19,15.56,13.31v-11.57c-.28-.12-.54-.27-.77-.42Zm23.81-9.78c-2.8-6.05-9.1-7.78-15.34-8.66-6.67-.68-9.96-2.37-9.88-5.08-.09-.67.13-1.31.46-1.89.18-.32.41-.63.69-.91.28-.3.63-.58,1.02-.81.05,0,0-11.06.02-11.08-7.89,1.11-14.56,7.19-14.37,15.38-.03,2.74.87,5.55,2.47,7.58,3.05,3.67,8.35,5.36,12.84,6.19.94.15,1.99.3,3.13.44,2.95.41,5.12,1.05,6.55,1.96,3.42,2.15,2.79,7.4-1.83,8.02v10.95c5.93-.54,11.79-3.11,14.24-8.65,1.8-3.76,1.7-9.79,0-13.43Zm-2.11-22.23c-2.98-3.97-7.57-5.7-12.13-6.31v10.62c.38.14.71.29,1,.46.58.3,1.09.69,1.55,1.15.46.44.82.85,1.09,1.22.38.45.83,1.62.99,2.06.05.1.08.25.13.44,2.68-.86,6.14-2.27,10.4-4.2-.74-2.08-1.76-3.89-3.03-5.45Z"/>
    <path class="cls-8" d="m427.39,231.45v27.69h10.6v-27.69h-10.6Zm0-22.31v13.26h10.6v-13.26h-10.6Z"/>
    <path class="cls-8" d="m492.35,216.21c-3.75-3.72-8.4-5.96-13.91-6.72v10.07c9.38,2.58,12.33,14.68,8.18,22.7-4.08,8.48-16.74,9.89-22.88,3.08-7.05-7.24-4.75-22.89,5.91-25.77v-10.08c-12.64,1.64-21.21,11.91-20.99,24.95-.22,14.78,10.58,25.47,25.35,25.24,14.82.23,25.63-10.42,25.42-25.24,0-7.49-2.35-13.57-7.08-18.24Z"/>
    <path class="cls-8" d="m542.36,209.2l.13,31.87-19.56-31.87h-12.51v24.19h11.01l.05-6.06,19.16,31.6h12.58v-49.74h-10.87Zm-31.94,38.06v11.67h10.8l.1-11.67h-10.9Z"/>
    <path class="cls-8" d="m584.13,247.27l-.02,11.88,11-.14.05-11.74h-11.03Zm39.1-38.61l-14.29,16.78-13.89-16.65h-10.87l-.03,24.6h11.06l.03-8.7,13.57,16.38,14.03-15.97.07,33.9,10.87.07.2-50.41h-10.73Z"/>
    <path class="cls-8" d="m680.19,249.54c-7.53-.04-28.28-.17-35.49-.14v9.54h35.56l-.07-9.41Zm-35.49-40.81v9.54c10.58-.01,24.76.05,35.36.07v-9.61h-35.36Zm0,19.42v10.62c7.15.02,27.92-.05,35.36-.07v-10.56h-35.36Z"/>
    <path class="cls-8" d="m734.46,223.89c-2.68-6.36-7.5-10.6-14.03-12.99-3.34-1.22-7-1.83-11-1.83h-17.65v9.34h17.65c9.25-.11,16.12,5.84,16,15.23.25,7.41-5.17,13.98-12.58,14.89-2.11.52-18.57.18-21.07.27v10.42s17.65,0,17.65,0c8.08,0,14.6-2.3,19.56-6.9,7.49-6.44,9.4-19.23,5.47-28.42Z"/>
    <path class="cls-8" d="m747.56,209.14v13.26h10.6v-13.26h-10.6Zm0,22.31v27.69h10.6v-27.69h-10.6Z"/>
    <path class="cls-8" d="m816.38,258.94h-46.89l3.18-9.54h29.96l-2.19-9.07-6.72-20.77-7.7,20.77-1.7,6.33h-10.73l12.63-37.86,14.42.2c2.23,7.09,13.77,43.72,15.74,49.94Z"/>
  </g>
</svg>